# xmcd
#
# Track frame offsets:
#	150
#	20646
#	50165
#	64904
#	83251
#	103008
#	116522
#	135376
#	150314
#	166050
#
# Disc length: 2452 seconds
#
# Revision: 0
# Processed by: cddbd v1.5.2PL0 Copyright (c) Steve Scherf et al.
# Submitted via: EasyCDDAExtractor 16.0.8.1
#
DISCID=7309920a
DTITLE=Blues Hawks - Sons Of Deliverance
DYEAR=2003
DGENRE=Blues
TTITLE0=Wang Dang Doodle
TTITLE1=Mustang Sally
TTITLE2=Messin With The Kid
TTITLE3=Pride And Joy
TTITLE4=Voodoo Woman
TTITLE5=Money Tree
TTITLE6=Sweet Home Chicago
TTITLE7=Never Far From The Blues
TTITLE8=Juke Joint Jump
TTITLE9=Cleopatra Boogie
EXTD=
EXTT0=
EXTT1=
EXTT2=
EXTT3=
EXTT4=
EXTT5=
EXTT6=
EXTT7=
EXTT8=
EXTT9=
PLAYORDER=
